# xmcd
#
# Track frame offsets:
#	182
#	11207
#	21107
#	33145
#	44282
#	55007
#	62732
#	75257
#	84382
#	112682
#	123082
#	135782
#	145945
#	154157
#
# Disc length: 2189 seconds
#
# Revision: 0
# Processed by: cddbd v1.5.2PL0 Copyright (c) Steve Scherf et al.
# Submitted via: dBpowerAMP V4.0
#
DISCID=9a088b0e
DTITLE=Gema 4 - Grandes Boleros  Capella
DYEAR=1994
DGENRE=Ballad
TTITLE0=La Gloria Eres Tú
TTITLE1=Piel Canela
TTITLE2=Por Ti
TTITLE3=Piensa En Mí
TTITLE4=Libre De Pecado
TTITLE5=Duele
TTITLE6=La Puerta
TTITLE7=Cómo Fue
TTITLE8=Poutpurri
TTITLE9=Evocación
TTITLE10=Bésame Mucho
TTITLE11=Rosa Mustia
TTITLE12=El que Siembra Su Maíz
TTITLE13=La Mujer De Antonio
EXTD=
EXTT0=
EXTT1=
EXTT2=
EXTT3=
EXTT4=
EXTT5=
EXTT6=
EXTT7=
EXTT8=
EXTT9=
EXTT10=
EXTT11=
EXTT12=
EXTT13=
PLAYORDER=
